ply
format ascii 1.0
element vertex 381
property float x
property float y
property float z
property uchar red
property uchar green
property uchar blue
property uchar alpha
element face 758
property list uchar int vertex_indices
end_header
6.347576 -2.006836 3.988806 204 185 41 153
1.416008 -2.006836 3.987038 204 185 41 153
1.806633 -2.006836 3.987038 204 185 41 153
-1.464924 -1.987305 3.994275 204 185 41 153
4.882009 -1.987305 3.987038 204 185 41 153
6.347576 -1.987305 3.963333 204 185 41 153
1.025383 -1.987305 3.961920 204 185 41 153
1.220695 -1.987305 3.961920 204 185 41 153
1.611320 -1.987305 3.961920 204 185 41 153
1.806633 -1.987305 3.961920 204 185 41 153
2.197258 -1.987305 3.975352 204 185 41 153
4.882009 -1.967774 3.961920 204 185 41 153
2.441326 -1.967774 3.953822 204 185 41 153
8.300701 -1.967774 3.950000 204 185 41 153
1.806633 -1.967774 3.941617 204 185 41 153
2.001945 -1.967774 3.946320 204 185 41 153
2.587883 -1.967774 3.964764 204 185 41 153
3.173820 -1.967774 3.992424 204 185 41 153
-3.418049 -1.948242 3.960527 204 185 41 153
1.025383 -1.948242 3.981885 204 185 41 153
1.220695 -1.948242 3.981885 204 185 41 153
1.611320 -1.948242 3.957793 204 185 41 153
2.197258 -1.948242 3.939349 204 185 41 153
2.587883 -1.948242 3.943939 204 185 41 153
3.173820 -1.948242 3.966216 204 185 41 153
-5.371174 -1.928711 3.961920 204 185 41 153
2.441326 -1.928711 3.957793 204 185 41 153
4.394451 -1.928711 3.978572 204 185 41 153
1.416008 -1.928711 3.990602 204 185 41 153
1.806633 -1.928711 3.966216 204 185 41 153
2.392570 -1.928711 3.956451 204 185 41 153
2.978508 -1.928711 3.939349 204 185 41 153
3.369133 -1.928711 3.960527 204 185 41 153
-7.324299 -1.909180 3.957793 204 185 41 153
-3.418049 -1.909180 3.939349 204 185 41 153
2.001945 -1.909180 3.983577 204 185 41 153
2.587883 -1.909180 3.961920 204 185 41 153
3.369133 -1.909180 3.948758 204 185 41 153
-7.324299 -1.889649 3.961920 204 185 41 153
4.882009 -1.889649 3.988806 204 185 41 153
2.978508 -1.889649 3.957793 204 185 41 153
3.564445 -1.889649 3.940475 204 185 41 153
3.955070 -1.889649 3.978572 204 185 41 153
-5.371174 -1.870117 3.976950 204 185 41 153
3.369133 -1.870117 3.953822 204 185 41 153
3.564445 -1.870117 3.951257 204 185 41 153
4.394451 -2.014032 4.000000 204 185 41 153
6.347576 -2.014160 4.000000 204 185 41 153
8.300701 -2.015381 4.000000 204 185 41 153
1.220695 -2.015381 4.000000 204 185 41 153
1.416008 -2.015381 4.000000 204 185 41 153
1.611320 -2.015381 4.000000 204 185 41 153
1.806633 -2.015381 4.000000 204 185 41 153
2.001945 -2.017687 4.000000 204 185 41 153
-1.464924 -1.990752 4.000000 204 185 41 153
2.441326 -2.005687 4.000000 204 185 41 153
4.394451 -2.006836 4.134616 204 185 41 153
2.392570 -1.997071 4.000000 204 185 41 153
2.587883 -1.993408 4.000000 204 185 41 153
-1.915638 -1.987305 4.000000 204 185 41 153
-3.418049 -1.976454 4.000000 204 185 41 153
-1.464924 -1.987305 4.057692 204 185 41 153
2.858314 -1.987305 4.000000 204 185 41 153
2.783195 -1.987305 4.125000 204 185 41 153
2.978508 -1.978114 4.000000 204 185 41 153
3.173820 -1.972369 4.000000 204 185 41 153
-5.371174 -1.960880 4.000000 204 185 41 153
-3.418049 -1.967774 4.153847 204 185 41 153
3.229625 -1.967774 4.000000 204 185 41 153
3.173820 -1.967774 4.083333 204 185 41 153
-9.277424 -1.934137 4.000000 204 185 41 153
-7.324299 -1.948242 4.011905 204 185 41 153
-5.371174 -1.948242 4.183333 204 185 41 153
1.220695 -1.937392 4.000000 204 185 41 153
3.480738 -1.948242 4.000000 204 185 41 153
3.564445 -1.941349 4.000000 204 185 41 153
3.759758 -1.932158 4.000000 204 185 41 153
-9.851887 -1.928711 4.000000 204 185 41 153
-7.324299 -1.928711 4.163461 204 185 41 153
4.394451 -1.914063 4.000000 204 185 41 153
6.347576 -1.916504 4.000000 204 185 41 153
1.025383 -1.928711 4.077586 204 185 41 153
1.340889 -1.928711 4.000000 204 185 41 153
1.220695 -1.928711 4.105263 204 185 41 153
1.416008 -1.922967 4.000000 204 185 41 153
1.611320 -1.917861 4.000000 204 185 41 153
3.759758 -1.928711 4.046875 204 185 41 153
-9.277424 -1.909180 4.120000 204 185 41 153
2.441326 -1.898329 4.000000 204 185 41 153
1.611320 -1.909180 4.153847 204 185 41 153
1.806633 -1.904297 4.000000 204 185 41 153
2.001945 -1.898194 4.000000 204 185 41 153
2.197258 -1.898194 4.000000 204 185 41 153
2.392570 -1.896542 4.000000 204 185 41 153
4.003898 -1.909180 4.000000 204 185 41 153
-1.065609 -1.889649 4.000000 204 185 41 153
-9.277424 -1.871620 4.000000 204 185 41 153
1.325268 -1.889649 4.000000 204 185 41 153
4.882009 -1.882755 4.000000 204 185 41 153
2.441326 -1.889649 4.100000 204 185 41 153
2.587883 -1.881606 4.000000 204 185 41 153
4.101554 -1.889649 4.000000 204 185 41 153
-7.324299 -1.855182 4.000000 204 185 41 153
-7.324299 -1.870117 4.095589 204 185 41 153
-5.371174 -1.854248 4.000000 204 185 41 153
-5.371174 -1.870117 4.180556 204 185 41 153
-1.464924 -1.866455 4.000000 204 185 41 153
2.978508 -1.858629 4.000000 204 185 41 153
4.089347 -1.870117 4.000000 204 185 41 153
3.076164 -1.850586 4.000000 204 185 41 153
3.369133 -1.834717 4.000000 204 185 41 153
3.564445 -1.832276 4.000000 204 185 41 153
3.955070 -1.845703 4.000000 204 185 41 153
6.347576 -2.013730 4.250000 204 185 41 153
8.300701 -2.012940 4.250000 204 185 41 153
1.220695 -2.016602 4.250000 204 185 41 153
1.611320 -2.016602 4.250000 204 185 41 153
2.001945 -2.014432 4.250000 204 185 41 153
4.882009 -1.987305 4.250000 204 185 41 153
6.347576 -2.006836 4.310001 204 185 41 153
1.025383 -2.006836 4.383333 204 185 41 153
2.115876 -2.006836 4.250000 204 185 41 153
2.392570 -1.998291 4.250000 204 185 41 153
2.587883 -1.995347 4.250000 204 185 41 153
-1.464924 -1.977539 4.250000 204 185 41 153
2.441326 -1.987305 4.368420 204 185 41 153
2.783195 -1.981560 4.250000 204 185 41 153
2.978508 -1.974667 4.250000 204 185 41 153
-2.767018 -1.967774 4.250000 204 185 41 153
2.978508 -1.967774 4.350000 204 185 41 153
-3.418049 -1.948242 4.343750 204 185 41 153
-1.464924 -1.948242 4.466667 204 185 41 153
3.564445 -1.929932 4.250000 204 185 41 153
-7.324299 -1.914063 4.250000 204 185 41 153
1.416008 -1.915690 4.250000 204 185 41 153
-5.371174 -1.909180 4.419643 204 185 41 153
1.025383 -1.904584 4.250000 204 185 41 153
1.220695 -1.909180 4.329546 204 185 41 153
1.522541 -1.909180 4.250000 204 185 41 153
1.806633 -1.901138 4.250000 204 185 41 153
2.001945 -1.900635 4.250000 204 185 41 153
3.759758 -1.909180 4.326923 204 185 41 153
-6.399128 -1.889649 4.250000 204 185 41 153
-5.371174 -1.889649 4.388889 204 185 41 153
4.394451 -1.882755 4.250000 204 185 41 153
6.347576 -1.889649 4.321428 204 185 41 153
8.300701 -1.889649 4.388889 204 185 41 153
2.360017 -1.889649 4.250000 204 185 41 153
2.587883 -1.877011 4.250000 204 185 41 153
4.016105 -1.889649 4.250000 204 185 41 153
3.955070 -1.889649 4.363637 204 185 41 153
-3.418049 -1.859777 4.250000 204 185 41 153
-3.418049 -1.870117 4.437500 204 185 41 153
-1.464924 -1.857910 4.250000 204 185 41 153
4.882009 -1.859777 4.250000 204 185 41 153
2.441326 -1.870117 4.291667 204 185 41 153
4.394451 -1.870117 4.375000 204 185 41 153
2.783195 -1.860926 4.250000 204 185 41 153
4.089347 -1.870117 4.250000 204 185 41 153
3.008555 -1.850586 4.250000 204 185 41 153
3.173820 -1.837948 4.250000 204 185 41 153
3.369133 -1.838651 4.250000 204 185 41 153
3.759758 -1.839736 4.250000 204 185 41 153
4.016105 -1.850586 4.250000 204 185 41 153
3.564445 -1.827608 4.250000 204 185 41 153
1.806633 -2.013347 4.500000 204 185 41 153
8.300701 -1.987305 4.500000 204 185 41 153
1.025383 -1.999640 4.500000 204 185 41 153
1.220695 -2.001953 4.500000 204 185 41 153
1.611320 -2.001092 4.500000 204 185 41 153
2.197258 -1.997071 4.500000 204 185 41 153
2.392570 -1.994198 4.500000 204 185 41 153
2.441326 -1.975816 4.500000 204 185 41 153
4.394451 -1.978760 4.500000 204 185 41 153
6.347576 -1.983643 4.500000 204 185 41 153
2.482713 -1.987305 4.500000 204 185 41 153
2.783195 -1.973518 4.500000 204 185 41 153
1.464763 -1.967774 4.500000 204 185 41 153
4.882009 -1.960178 4.500000 204 185 41 153
4.882009 -1.967774 4.616667 204 185 41 153
2.587883 -1.967774 4.647058 204 185 41 153
-9.440805 -1.948242 4.500000 204 185 41 153
-1.464924 -1.943360 4.500000 204 185 41 153
-1.464924 -1.948242 4.562500 204 185 41 153
2.978508 -1.948242 4.650000 204 185 41 153
3.173820 -1.941349 4.500000 204 185 41 153
-2.843586 -1.928711 4.500000 204 185 41 153
-3.418049 -1.921736 4.500000 204 185 41 153
-3.418049 -1.928711 4.573529 204 185 41 153
3.564445 -1.915283 4.500000 204 185 41 153
-4.394612 -1.909180 4.500000 204 185 41 153
-5.371174 -1.909180 4.632353 204 185 41 153
1.416008 -1.896973 4.500000 204 185 41 153
3.759758 -1.899414 4.500000 204 185 41 153
-4.503132 -1.889649 4.500000 204 185 41 153
8.300701 -1.879883 4.500000 204 185 41 153
1.025383 -1.878798 4.500000 204 185 41 153
1.025383 -1.889649 4.678572 204 185 41 153
2.267012 -1.889649 4.500000 204 185 41 153
2.197258 -1.889649 4.638889 204 185 41 153
2.392570 -1.879883 4.500000 204 185 41 153
3.876945 -1.889649 4.500000 204 185 41 153
3.955070 -1.882324 4.500000 204 185 41 153
-1.464924 -1.855182 4.500000 204 185 41 153
4.394451 -1.858810 4.500000 204 185 41 153
2.685539 -1.870117 4.500000 204 185 41 153
4.069960 -1.870117 4.500000 204 185 41 153
3.955070 -1.870117 4.647058 204 185 41 153
4.882009 -1.841906 4.500000 204 185 41 153
4.882009 -1.850586 4.666667 204 185 41 153
3.092357 -1.850586 4.500000 204 185 41 153
2.441326 -1.845703 4.500000 204 185 41 153
3.173820 -1.838379 4.500000 204 185 41 153
3.369133 -1.837565 4.500000 204 185 41 153
4.016105 -1.850586 4.500000 204 185 41 153
3.955070 -1.844842 4.500000 204 185 41 153
3.499342 -1.831055 4.500000 204 185 41 153
3.617714 -1.831055 4.500000 204 185 41 153
3.564445 -1.827800 4.500000 204 185 41 153
6.347576 -1.993815 4.750000 204 185 41 153
8.300701 -1.994629 4.750000 204 185 41 153
1.025383 -1.997071 4.750000 204 185 41 153
1.416008 -1.997071 4.750000 204 185 41 153
1.806633 -1.994198 4.750000 204 185 41 153
2.441326 -1.979981 4.750000 204 185 41 153
4.394451 -1.987305 4.854167 204 185 41 153
2.001945 -1.980795 4.750000 204 185 41 153
2.392570 -1.974667 4.750000 204 185 41 153
-3.418049 -1.967774 4.932692 204 185 41 153
-1.464924 -1.961263 4.750000 204 185 41 153
2.587883 -1.959731 4.750000 204 185 41 153
2.783195 -1.956285 4.750000 204 185 41 153
-3.418049 -1.944336 4.750000 204 185 41 153
-3.418049 -1.948242 4.778847 204 185 41 153
2.978508 -1.941349 4.750000 204 185 41 153
-5.371174 -1.920341 4.750000 204 185 41 153
3.369133 -1.920669 4.750000 204 185 41 153
3.564445 -1.916073 4.750000 204 185 41 153
-7.324299 -1.909180 4.880952 204 185 41 153
2.001945 -1.900499 4.750000 204 185 41 153
-5.256275 -1.889649 4.750000 204 185 41 153
6.347576 -1.878798 4.750000 204 185 41 153
8.300701 -1.888500 4.750000 204 185 41 153
2.141453 -1.889649 4.750000 204 185 41 153
2.392570 -1.878160 4.750000 204 185 41 153
3.863157 -1.889649 4.750000 204 185 41 153
-3.662190 -1.870117 4.750000 204 185 41 153
-1.464924 -1.857910 4.750000 204 185 41 153
2.441326 -1.861573 4.750000 204 185 41 153
5.045482 -1.870117 4.750000 204 185 41 153
4.394451 -1.865235 4.750000 204 185 41 153
4.394451 -1.870117 4.833333 204 185 41 153
2.783195 -1.856331 4.750000 204 185 41 153
3.869621 -1.870117 4.750000 204 185 41 153
3.759758 -1.870117 4.857143 204 185 41 153
2.978508 -1.840821 4.750000 204 185 41 153
3.173820 -1.839600 4.750000 204 185 41 153
3.369133 -1.840821 4.750000 204 185 41 153
3.369133 -1.850586 4.950000 204 185 41 153
3.676051 -1.850586 4.750000 204 185 41 153
3.564445 -1.841395 4.750000 204 185 41 153
4.394451 -1.995850 5.000000 204 185 41 153
6.347576 -1.997071 5.000000 204 185 41 153
1.025383 -1.999512 5.000000 204 185 41 153
1.220695 -2.006836 5.142857 204 185 41 153
1.416008 -1.997071 5.000000 204 185 41 153
1.611320 -2.006836 5.160715 204 185 41 153
1.806633 -1.994900 5.000000 204 185 41 153
-3.418049 -1.976319 5.000000 204 185 41 153
4.882009 -1.987305 5.000000 204 185 41 153
-1.464924 -1.980795 5.000000 204 185 41 153
1.920564 -1.987305 5.000000 204 185 41 153
2.197258 -1.978760 5.000000 204 185 41 153
2.197258 -1.987305 5.102942 204 185 41 153
-5.371174 -1.967774 5.109375 204 185 41 153
2.512764 -1.967774 5.000000 204 185 41 153
2.587883 -1.967774 5.113637 204 185 41 153
-6.347737 -1.948242 5.000000 204 185 41 153
3.173820 -1.940019 5.000000 204 185 41 153
-7.324299 -1.924204 5.000000 204 185 41 153
3.369133 -1.927491 5.000000 204 185 41 153
-7.324299 -1.892904 5.000000 204 185 41 153
8.300701 -1.895074 5.000000 204 185 41 153
1.220695 -1.904297 5.000000 204 185 41 153
1.611320 -1.904297 5.000000 204 185 41 153
3.564445 -1.907678 5.000000 204 185 41 153
2.441326 -1.879883 5.000000 204 185 41 153
2.441326 -1.889649 5.125000 204 185 41 153
4.394451 -1.879309 5.000000 204 185 41 153
6.347576 -1.888428 5.000000 204 185 41 153
6.347576 -1.889649 5.035715 204 185 41 153
2.197258 -1.880968 5.000000 204 185 41 153
3.687800 -1.889649 5.000000 204 185 41 153
-5.371174 -1.870117 5.020833 204 185 41 153
-3.418049 -1.858182 5.000000 204 185 41 153
-1.464924 -1.859777 5.000000 204 185 41 153
2.392570 -1.865235 5.000000 204 185 41 153
2.587883 -1.858629 5.000000 204 185 41 153
3.564445 -1.870117 5.062500 204 185 41 153
2.693052 -1.850586 5.000000 204 185 41 153
3.173820 -1.839736 5.000000 204 185 41 153
6.347576 -2.014432 5.250000 204 185 41 153
8.300701 -2.014878 5.250000 204 185 41 153
1.025383 -2.014160 5.250000 204 185 41 153
1.220695 -2.014160 5.250000 204 185 41 153
1.416008 -2.012940 5.250000 204 185 41 153
1.611320 -2.012581 5.250000 204 185 41 153
-3.418049 -1.994198 5.250000 204 185 41 153
-1.464924 -1.997645 5.250000 204 185 41 153
2.441326 -2.001092 5.250000 204 185 41 153
6.347576 -2.006836 5.262962 204 185 41 153
1.025383 -2.006836 5.261194 204 185 41 153
1.220695 -2.006836 5.261194 204 185 41 153
1.806633 -1.999943 5.250000 204 185 41 153
2.001945 -2.000733 5.250000 204 185 41 153
2.197258 -1.998794 5.250000 204 185 41 153
-5.371174 -1.978114 5.250000 204 185 41 153
-1.464924 -1.987305 5.266423 204 185 41 153
2.441326 -1.987305 5.271428 204 185 41 153
4.394451 -1.987305 5.273050 204 185 41 153
8.300701 -1.987305 5.288080 204 185 41 153
1.416008 -1.987305 5.285236 204 185 41 153
1.806633 -1.987305 5.269785 204 185 41 153
2.392570 -1.983643 5.250000 204 185 41 153
2.587883 -1.974667 5.250000 204 185 41 153
-7.324299 -1.959229 5.250000 204 185 41 153
-5.371174 -1.967774 5.266423 204 185 41 153
-1.464924 -1.967774 5.290849 204 185 41 153
6.347576 -1.967774 5.302469 204 185 41 153
1.220695 -1.967774 5.307230 204 185 41 153
2.197258 -1.967774 5.290849 204 185 41 153
2.783195 -1.959093 5.250000 204 185 41 153
-8.358296 -1.948242 5.250000 204 185 41 153
4.394451 -1.948242 5.311765 204 185 41 153
1.025383 -1.948242 5.294872 204 185 41 153
1.611320 -1.948242 5.300000 204 185 41 153
2.197258 -1.948242 5.303680 204 185 41 153
2.783195 -1.948242 5.268115 204 185 41 153
3.173820 -1.934137 5.250000 204 185 41 153
-9.155354 -1.928711 5.250000 204 185 41 153
-7.324299 -1.928711 5.276224 204 185 41 153
-3.418049 -1.928711 5.316092 204 185 41 153
-1.464924 -1.928711 5.311765 204 185 41 153
2.441326 -1.928711 5.290849 204 185 41 153
8.300701 -1.928711 5.289473 204 185 41 153
1.025383 -1.914063 5.250000 204 185 41 153
1.025383 -1.928711 5.271428 204 185 41 153
1.416008 -1.910401 5.250000 204 185 41 153
2.001945 -1.928711 5.301242 204 185 41 153
2.197258 -1.928711 5.310651 204 185 41 153
2.587883 -1.928711 5.298743 204 185 41 153
4.882009 -1.909180 5.285236 204 185 41 153
2.441326 -1.898840 5.250000 204 185 41 153
4.394451 -1.896973 5.250000 204 185 41 153
6.347576 -1.909180 5.268115 204 185 41 153
1.611320 -1.909180 5.250000 204 185 41 153
1.806633 -1.898438 5.250000 204 185 41 153
1.806633 -1.909180 5.269785 204 185 41 153
3.173820 -1.909180 5.285236 204 185 41 153
3.426579 -1.909180 5.250000 204 185 41 153
-8.817860 -1.889649 5.250000 204 185 41 153
-7.324299 -1.873780 5.250000 204 185 41 153
-7.324299 -1.889649 5.273050 204 185 41 153
-5.371174 -1.889649 5.289473 204 185 41 153
1.239391 -1.889649 5.250000 204 185 41 153
4.882009 -1.883904 5.250000 204 185 41 153
4.882009 -1.889649 5.259398 204 185 41 153
1.953117 -1.889649 5.250000 204 185 41 153
2.197258 -1.889649 5.271428 204 185 41 153
2.783195 -1.889649 5.311765 204 185 41 153
3.454582 -1.889649 5.250000 204 185 41 153
3.369133 -1.889649 5.262962 204 185 41 153
-5.371174 -1.858182 5.250000 204 185 41 153
-1.615162 -1.870117 5.250000 204 185 41 153
-3.418049 -1.857097 5.250000 204 185 41 153
2.267012 -1.870117 5.250000 204 185 41 153
2.392570 -1.870117 5.266423 204 185 41 153
3.369133 -1.864909 5.250000 204 185 41 153
2.587883 -1.844842 5.250000 204 185 41 153
2.587883 -1.850586 5.259398 204 185 41 153
2.783195 -1.839097 5.250000 204 185 41 153
3 47 46 0
3 47 0 48
3 48 6 49
3 50 49 1
3 50 1 51
3 52 51 2
3 52 2 53
3 54 59 3
3 54 3 55
3 55 3 4
3 5 46 55
3 0 46 5
3 48 0 5
3 6 48 5
3 49 6 7
3 1 49 7
3 51 7 8
3 51 1 7
3 2 8 9
3 2 51 8
3 53 2 9
3 53 9 10
3 53 10 57
3 62 58 64
3 60 3 59
3 4 3 11
3 55 11 12
3 55 4 11
3 5 55 12
3 6 5 13
3 7 6 20
3 7 20 8
3 9 8 14
3 9 14 15
3 10 9 15
3 57 10 15
3 58 57 16
3 64 58 16
3 65 64 17
3 68 65 17
3 18 60 66
3 3 60 18
3 11 3 18
3 12 11 18
3 13 5 12
3 6 13 19
3 20 6 19
3 8 20 21
3 14 8 21
3 15 21 22
3 15 14 21
3 57 15 22
3 16 22 23
3 16 57 22
3 64 23 24
3 64 16 23
3 17 64 24
3 17 74 68
3 17 24 74
3 66 71 25
3 18 25 34
3 18 66 25
3 18 34 26
3 12 18 26
3 12 26 27
3 12 27 80
3 13 12 80
3 13 80 19
3 19 73 20
3 28 73 82
3 28 21 20
3 28 20 73
3 21 28 85
3 21 85 29
3 22 21 29
3 22 29 30
3 23 22 30
3 24 23 31
3 74 31 32
3 74 24 31
3 74 32 75
3 70 77 95
3 71 95 33
3 71 70 95
3 25 71 33
3 34 25 33
3 27 26 79
3 27 79 80
3 82 84 28
3 28 84 85
3 29 85 90
3 30 35 92
3 30 29 35
3 30 92 93
3 23 93 36
3 23 30 93
3 31 23 36
3 32 31 37
3 75 32 37
3 76 75 37
3 33 95 38
3 33 38 43
3 34 43 39
3 34 33 43
3 26 39 88
3 34 39 26
3 88 39 97
3 88 79 26
3 29 91 35
3 29 90 91
3 35 91 92
3 100 36 93
3 31 100 40
3 31 36 100
3 37 31 40
3 37 40 44
3 37 44 41
3 76 37 41
3 94 76 42
3 94 42 101
3 43 38 95
3 43 95 96
3 39 43 106
3 39 106 98
3 98 97 39
3 40 100 107
3 41 44 45
3 76 45 42
3 76 41 45
3 101 42 108
3 96 102 43
3 43 102 104
3 43 104 106
3 109 40 107
3 44 40 109
3 45 44 109
3 42 45 111
3 42 111 112
3 108 42 112
3 109 111 45
3 109 110 111
3 55 46 56
3 46 113 56
3 47 113 46
3 47 48 113
3 113 48 114
3 48 49 114
3 114 49 115
3 49 50 115
3 50 51 115
3 115 51 116
3 51 52 116
3 52 53 116
3 116 53 117
3 121 53 57
3 121 117 53
3 59 54 61
3 54 118 61
3 55 118 54
3 118 55 125
3 125 55 56
3 121 57 122
3 57 58 122
3 122 58 123
3 123 58 62
3 123 62 63
3 66 60 67
3 124 128 67
3 61 124 67
3 61 67 60
3 59 61 60
3 118 124 61
3 126 123 63
3 64 63 62
3 64 127 126
3 64 126 63
3 127 64 65
3 127 65 69
3 65 68 69
3 71 66 72
3 67 130 72
3 67 72 66
3 128 130 67
3 129 127 69
3 69 68 74
3 77 70 87
3 71 78 87
3 71 87 70
3 78 71 72
3 19 80 81
3 19 81 73
3 73 81 83
3 82 73 83
3 75 69 74
3 75 132 69
3 132 75 76
3 132 76 86
3 77 87 95
3 87 78 133
3 136 81 80
3 81 136 83
3 134 84 83
3 83 84 82
3 85 134 89
3 84 134 85
3 89 134 138
3 90 85 89
3 141 132 86
3 86 76 94
3 141 86 94
3 95 87 142
3 142 87 133
3 88 97 99
3 99 79 88
3 145 79 99
3 79 145 80
3 138 90 89
3 139 90 138
3 91 139 140
3 91 90 139
3 92 140 147
3 92 91 140
3 92 147 93
3 150 141 94
3 94 101 149
3 94 149 150
3 95 103 96
3 142 103 95
3 105 142 143
3 103 142 105
3 98 106 154
3 98 154 99
3 97 98 99
3 99 144 145
3 148 100 147
3 147 100 93
3 100 148 107
3 149 101 158
3 158 101 108
3 102 96 103
3 102 103 104
3 104 103 105
3 151 106 104
3 151 104 105
3 106 151 153
3 106 153 154
3 148 157 107
3 107 157 159
3 107 159 109
3 158 108 163
3 163 108 112
3 159 110 109
3 159 160 110
3 110 160 161
3 110 161 111
3 111 161 164
3 112 162 163
3 112 111 162
3 164 162 111
3 119 113 114
3 120 114 115
3 115 116 169
3 116 165 169
3 165 116 117
3 125 56 173
3 119 56 113
3 119 174 173
3 119 173 56
3 174 119 114
3 174 114 166
3 166 114 167
3 167 114 120
3 167 120 168
3 168 120 115
3 121 170 165
3 121 165 117
3 121 122 170
3 170 122 171
3 171 123 175
3 171 122 123
3 124 172 177
3 124 118 125
3 124 125 172
3 172 125 173
3 126 176 175
3 126 175 123
3 176 126 127
3 176 127 129
3 124 130 128
3 124 131 130
3 131 178 181
3 131 124 178
3 177 178 124
3 184 176 129
3 78 72 135
3 130 135 72
3 130 182 186
3 130 131 182
3 181 182 131
3 189 129 69
3 185 129 189
3 189 69 132
3 135 133 78
3 135 187 190
3 135 130 187
3 186 187 130
3 83 136 137
3 83 137 134
3 189 132 141
3 133 143 142
3 135 143 133
3 135 190 143
3 143 190 194
3 80 145 146
3 80 146 136
3 136 146 196
3 137 196 192
3 136 196 137
3 137 192 134
3 192 138 134
3 139 138 192
3 140 192 239
3 140 139 192
3 147 239 198
3 147 140 239
3 193 189 141
3 193 141 150
3 201 193 150
3 152 105 143
3 194 152 143
3 99 155 144
3 144 155 156
3 145 156 195
3 144 156 145
3 145 195 146
3 146 195 196
3 198 148 147
3 198 200 148
3 148 200 205
3 202 201 150
3 149 202 150
3 149 158 206
3 149 206 202
3 151 105 152
3 203 153 151
3 203 151 152
3 153 203 154
3 211 155 154
3 154 155 99
3 156 211 204
3 155 211 156
3 204 211 210
3 204 195 156
3 205 157 148
3 157 205 159
3 159 205 212
3 206 158 214
3 214 158 163
3 203 208 154
3 154 208 211
3 212 160 159
3 161 212 213
3 161 160 212
3 213 216 161
3 161 216 164
3 163 217 215
3 163 162 217
3 215 214 163
3 216 218 164
3 218 217 164
3 164 217 162
3 166 220 219
3 166 167 220
3 220 167 221
3 167 168 221
3 221 168 222
3 168 115 222
3 115 169 222
3 222 169 223
3 223 169 165
3 172 179 177
3 172 224 229
3 172 229 179
3 172 173 224
3 224 173 225
3 225 173 174
3 225 174 219
3 174 166 219
3 226 223 165
3 226 165 227
3 227 165 170
3 227 170 171
3 180 171 175
3 227 171 180
3 180 175 176
3 229 232 183
3 183 179 229
3 178 179 183
3 181 178 183
3 178 177 179
3 230 227 180
3 230 180 231
3 231 180 176
3 231 176 184
3 232 235 188
3 188 183 232
3 182 183 188
3 186 182 188
3 182 181 183
3 234 231 184
3 185 184 129
3 185 236 234
3 185 234 184
3 235 238 191
3 191 188 235
3 187 188 191
3 190 187 191
3 187 186 188
3 185 189 236
3 236 189 237
3 245 237 189
3 238 240 191
3 194 190 240
3 240 190 191
3 192 197 284
3 192 284 239
3 198 239 199
3 199 239 243
3 193 245 189
3 245 193 201
3 194 246 152
3 240 246 194
3 249 241 195
3 195 241 242
3 196 242 197
3 195 242 196
3 192 196 197
3 243 200 199
3 244 200 243
3 199 200 198
3 205 244 252
3 200 244 205
3 253 202 207
3 253 245 201
3 253 201 202
3 202 206 207
3 247 203 246
3 246 203 152
3 203 247 209
3 250 204 248
3 248 204 210
3 250 249 204
3 204 249 195
3 252 255 205
3 205 255 212
3 207 259 253
3 207 206 214
3 208 203 209
3 208 209 211
3 211 209 248
3 210 211 248
3 212 255 256
3 213 256 257
3 213 212 256
3 213 260 216
3 213 257 260
3 260 259 217
3 217 259 215
3 215 259 207
3 214 215 207
3 218 216 260
3 217 218 260
3 261 269 224
3 261 224 225
3 219 262 261
3 219 261 225
3 219 220 262
3 220 221 262
3 262 221 263
3 221 222 263
3 263 222 265
3 222 223 265
3 265 223 267
3 271 267 223
3 268 228 270
3 229 269 270
3 269 229 224
3 226 271 223
3 226 227 271
3 271 227 272
3 272 227 275
3 233 228 277
3 277 228 268
3 270 233 229
3 228 233 270
3 229 233 232
3 230 275 227
3 230 231 275
3 275 231 278
3 235 277 279
3 233 235 232
3 277 235 233
3 231 234 278
3 236 278 234
3 280 278 236
3 238 235 279
3 280 236 237
3 280 237 285
3 237 245 285
3 240 238 281
3 289 282 242
3 282 197 242
3 197 282 283
3 284 197 283
3 239 284 356
3 239 356 291
3 239 291 243
3 292 285 245
3 281 293 240
3 246 240 293
3 286 288 251
3 288 241 251
3 289 241 288
3 251 241 249
3 241 289 242
3 244 291 296
3 243 291 244
3 292 254 298
3 292 245 254
3 254 245 253
3 293 294 246
3 247 294 295
3 247 246 294
3 247 295 209
3 209 295 248
3 248 295 286
3 248 286 250
3 250 286 251
3 249 250 251
3 297 252 296
3 296 252 244
3 252 297 299
3 255 252 299
3 298 254 259
3 253 259 254
3 300 255 299
3 256 255 300
3 257 300 258
3 256 300 257
3 257 258 260
3 260 258 298
3 259 260 298
3 301 309 262
3 301 262 302
3 304 303 264
3 304 264 305
3 305 264 265
3 305 265 306
3 306 265 266
3 269 261 308
3 308 261 309
3 309 261 262
3 302 263 303
3 302 262 263
3 303 263 264
3 264 263 265
3 265 313 266
3 267 313 265
3 266 313 306
3 313 267 314
3 314 267 271
3 315 314 273
3 323 315 273
3 316 325 274
3 274 307 316
3 268 307 274
3 307 270 308
3 307 268 270
3 270 269 308
3 314 272 273
3 314 271 272
3 272 323 273
3 275 323 272
3 324 275 276
3 323 275 324
3 331 324 276
3 332 274 325
3 277 274 332
3 277 268 274
3 275 331 276
3 275 278 331
3 331 278 338
3 279 332 339
3 277 332 279
3 359 278 280
3 359 338 278
3 339 238 279
3 282 345 347
3 359 280 285
3 238 360 281
3 339 360 238
3 364 352 287
3 287 352 353
3 353 282 290
3 290 282 289
3 282 353 345
3 283 282 347
3 355 284 283
3 355 283 347
3 356 284 355
3 291 356 367
3 370 359 285
3 285 292 370
3 360 361 281
3 293 281 361
3 365 295 373
3 286 365 287
3 295 365 286
3 287 365 364
3 286 287 288
3 288 287 353
3 288 353 289
3 289 353 290
3 375 291 367
3 291 375 296
3 370 298 377
3 370 292 298
3 361 372 293
3 372 294 293
3 374 294 372
3 295 374 373
3 294 374 295
3 296 375 297
3 258 377 298
3 375 378 297
3 378 299 297
3 380 299 378
3 300 299 380
3 300 380 377
3 300 377 258
3 309 301 310
3 310 302 311
3 310 301 302
3 311 302 303
3 311 304 312
3 311 303 304
3 312 304 305
3 307 308 317
3 308 309 318
3 318 309 319
3 310 319 309
3 310 311 319
3 319 311 320
3 311 312 320
3 312 305 320
3 320 305 321
3 305 306 321
3 321 306 322
3 322 306 313
3 322 313 314
3 325 316 326
3 307 326 316
3 307 317 326
3 326 317 327
3 317 308 327
3 308 318 327
3 318 319 327
3 327 319 328
3 319 320 328
3 328 320 329
3 320 321 329
3 321 322 329
3 322 314 335
3 335 314 330
3 314 315 330
3 330 315 323
3 326 332 325
3 326 327 342
3 342 327 333
3 327 328 333
3 328 329 333
3 333 329 334
3 334 329 335
3 329 322 335
3 335 330 336
3 330 323 336
3 336 323 350
3 323 324 350
3 337 324 331
3 350 324 337
3 337 331 338
3 332 340 339
3 332 326 340
3 326 342 341
3 342 333 343
3 343 333 344
3 333 334 344
3 344 334 346
3 334 335 346
3 346 335 347
3 347 335 348
3 335 336 348
3 348 336 349
3 336 350 349
3 337 338 350
3 339 340 362
3 340 326 362
3 326 341 362
3 362 341 351
3 341 342 351
3 342 343 351
3 343 344 351
3 351 344 354
3 354 344 346
3 354 346 345
3 345 346 347
3 347 348 355
3 355 348 357
3 357 348 367
3 348 349 367
3 367 349 350
3 369 350 358
3 350 338 358
3 358 338 359
3 339 362 360
3 362 351 363
3 363 351 373
3 373 351 366
3 366 352 364
3 366 351 352
3 352 351 353
3 353 351 354
3 345 353 354
3 356 355 357
3 357 367 356
3 367 350 368
3 350 369 368
3 358 359 371
3 371 359 370
3 361 360 362
3 362 372 361
3 363 372 362
3 372 363 373
3 365 373 366
3 364 365 366
3 375 367 368
3 368 376 375
3 368 369 376
3 376 369 380
3 369 358 380
3 358 371 380
3 380 371 377
3 371 370 377
3 374 372 373
3 376 379 375
3 376 380 379
3 378 375 379
3 378 379 380
